<?xml version="1.0" encoding="UTF-8" standalone="no"?>
<!-- Generator: Gravit.io -->

<svg
   xmlns:dc="http://purl.org/dc/elements/1.1/"
   xmlns:cc="http://creativecommons.org/ns#"
   xmlns:rdf="http://www.w3.org/1999/02/22-rdf-syntax-ns#"
   xmlns:svg="http://www.w3.org/2000/svg"
   xmlns="http://www.w3.org/2000/svg"
   xmlns:xlink="http://www.w3.org/1999/xlink"
   xmlns:sodipodi="http://sodipodi.sourceforge.net/DTD/sodipodi-0.dtd"
   xmlns:inkscape="http://www.inkscape.org/namespaces/inkscape"
   style="isolation:isolate"
   viewBox="0 0 40 40"
   width="40"
   height="40"
   id="svg4242"
   version="1.1"
   inkscape:version="0.91 r13725"
   sodipodi:docname="Department.svg">
  <metadata
     id="metadata4257">
    <rdf:RDF>
      <cc:Work
         rdf:about="">
        <dc:format>image/svg+xml</dc:format>
        <dc:type
           rdf:resource="http://purl.org/dc/dcmitype/StillImage" />
      </cc:Work>
    </rdf:RDF>
  </metadata>
  <sodipodi:namedview
     pagecolor="#ffffff"
     bordercolor="#666666"
     borderopacity="1"
     objecttolerance="10"
     gridtolerance="10"
     guidetolerance="10"
     inkscape:pageopacity="0"
     inkscape:pageshadow="2"
     inkscape:window-width="1447"
     inkscape:window-height="862"
     id="namedview4255"
     showgrid="false"
     inkscape:zoom="10.27"
     inkscape:cx="20"
     inkscape:cy="20"
     inkscape:window-x="0"
     inkscape:window-y="0"
     inkscape:window-maximized="0"
     inkscape:current-layer="g4251" />
  <defs
     id="defs4244">
    <linearGradient
       inkscape:collect="always"
       id="linearGradient4815">
      <stop
         style="stop-color:#ff0000;stop-opacity:1"
         offset="0"
         id="stop4817" />
      <stop
         style="stop-color:#ffd600;stop-opacity:1"
         offset="1"
         id="stop4819" />
    </linearGradient>
    <clipPath
       id="_clipPath_zV0sMZGiZG1OAtxe8s0UvMgiFk5UtijL">
      <rect
         width="40"
         height="40"
         id="rect4247" />
    </clipPath>
    <linearGradient
       inkscape:collect="always"
       xlink:href="#linearGradient4815"
       id="linearGradient4821"
       x1="19.982048"
       y1="24.652662"
       x2="20.151321"
       y2="14.331339"
       gradientUnits="userSpaceOnUse" />
  </defs>
  <g
     clip-path="url(#_clipPath_zV0sMZGiZG1OAtxe8s0UvMgiFk5UtijL)"
     id="g4249">
    <g
       id="g4251">
      <path
         d="m 14.673,0.396 c -0.221,0.057 -0.39,0.279 -0.388,0.507 l 0,3.631 c 0,0.717 0.378,1.353 0.954,1.726 l 0,0.683 0,2.083 c 0.116,1.65 0.75,2.804 1.636,3.513 -0.104,0.819 -0.456,1.291 -1.042,1.726 -0.694,0.514 -1.702,0.915 -2.767,1.37 -1.065,0.455 -2.196,1 -3.066,1.963 -0.87,0.962 -1.429,2.312 -1.428,4.258 l 0,0.356 0.298,0.12 8.247,0 0.935,-5.127 c -0.348,-0.444 -0.695,-0.925 -0.696,-1.521 0,-1.446 1.198,-2.647 2.644,-2.647 l 0,0.003 c 1.446,0 2.644,1.2 2.644,2.646 -10e-4,0.574 -0.299,1.064 -0.637,1.524 l 0.915,5.122 8.208,0 0.298,-0.12 0,-0.356 c 0,-1.899 -0.564,-3.237 -1.428,-4.168 -0.864,-0.931 -1.983,-1.431 -3.035,-1.875 -1.051,-0.444 -2.055,-0.841 -2.739,-1.37 -0.671,-0.518 -1.058,-1.114 -1.072,-2.26 0.925,-0.765 1.567,-1.843 1.607,-3.157 l 0,-2.083 0,-0.832 0,-1.726 c 0,-1.662 -1.259,-3.037 -2.857,-3.037 l -1.369,0 -4.344,0 C 15.865,1.348 15.595,1.296 15.476,1.231 15.358,1.164 15.327,1.154 15.327,0.903 15.33,0.584 14.981,0.313 14.673,0.396 Z"
         id="path4813"
         style="fill:#4b4b4b;fill-opacity:1" />
      <path
         d="m 20,14.287 c -0.771,0 -1.394,0.624 -1.394,1.394 0,0.406 0.175,0.762 0.471,1.023 0.023,0.026 0.355,0.265 0.205,0.725 l -1.15,6.304 1.868,0.964 1.904,-0.954 -1.128,-6.314 c -0.149,-0.556 0.196,-0.725 0.196,-0.725 0.266,-0.258 0.421,-0.642 0.422,-1.023 0,-0.77 -0.623,-1.394 -1.394,-1.394 z"
         id="path4811"
         style="fill-opacity:1;fill:url(#linearGradient4821)" />
      <path
         d="m 18.14,17.393 c 0.006,0.04 -0.004,0.082 0.012,0.11 0.031,0.056 0.059,0.089 0.08,0.112 0.002,0.012 0.004,0.012 0.005,0.012 -10e-4,-10e-4 0.016,0.016 0.015,0.015 -0.068,-0.06 -0.052,-0.181 -0.112,-0.249 z"
         id="path4809" />
      <path
         d="m 21.89,17.493 c -0.003,0.008 -0.003,0.018 -0.01,0.027 0.002,-0.013 0.005,-0.013 0.007,-0.013 0.004,-0.006 0.003,-0.011 0.003,-0.014 z"
         id="path4807" />
      <path
         d="m 19.375,25.781 0,1.118 -12.292,0 c -0.835,0 -1.517,0.7 -1.517,1.531 l 0,3.413 1.25,0 0,-3.413 c 0,-0.172 0.114,-0.281 0.267,-0.281 l 12.292,0 0,3.663 1.25,0 0,-3.663 12.292,0 c 0.153,0 0.267,0.109 0.267,0.281 l 0,3.411 1.25,0 0,-3.411 c 0,-0.831 -0.682,-1.531 -1.517,-1.531 l -12.292,0 0,-1.118 -0.635,0.318 -0.615,-0.318 z"
         id="path4805"
         style="fill:#4b4b4b;fill-opacity:1" />
      <path
         d="M 1.033,32.761 C 0.461,32.761 0,33.186 0,33.713 l 0,4.764 c 0,0.527 0.461,0.952 1.033,0.952 l 10.317,0 c 0.572,0 1.03,-0.425 1.03,-0.952 l 0,-4.764 c 0,-0.527 -0.458,-0.952 -1.03,-0.952 l -10.317,0 z"
         id="path4803"
         style="fill:#ffffc7;fill-opacity:1;stroke:#000000;stroke-opacity:1;stroke-width:0.5;stroke-miterlimit:4;stroke-dasharray:none" />
      <path
         d="m 15.239,32.761 c -0.527,0 -0.954,0.425 -0.954,0.952 l 0,4.764 c 0,0.527 0.427,0.952 0.954,0.952 l 9.522,0 c 0.527,0 0.954,-0.425 0.954,-0.952 l 0,-4.764 c 0,-0.527 -0.427,-0.952 -0.954,-0.952 l -9.522,0 z"
         id="path4801"
         style="fill:#ffffc7;fill-opacity:1;stroke:#000000;stroke-opacity:1;stroke-width:0.5;stroke-miterlimit:4;stroke-dasharray:none" />
      <path
         d="m 28.65,32.761 c -0.572,0 -1.03,0.425 -1.03,0.952 l 0,4.764 c 0,0.527 0.458,0.952 1.03,0.952 l 10.317,0 c 0.572,0 1.033,-0.425 1.033,-0.952 l 0,-4.764 c 0,-0.527 -0.461,-0.952 -1.033,-0.952 l -10.317,0 z"
         id="path4253"
         style="fill:#ffffc7;fill-opacity:1;stroke:#000000;stroke-opacity:1;stroke-width:0.5;stroke-miterlimit:4;stroke-dasharray:none" />
    </g>
  </g>
</svg>
